<?xml version="1.0" encoding="iso-8859-1"?>
<!-- Uploaded to: SVG Repo, www.svgrepo.com, Generator: SVG Repo Mixer Tools -->
<svg version="1.1" id="Layer_1" xmlns="http://www.w3.org/2000/svg" xmlns:xlink="http://www.w3.org/1999/xlink" 
	 viewBox="0 0 512 512" xml:space="preserve">
<polyline style="fill:#534741;" points="359.337,463.502 359.337,367.567 431.36,343.568 503.383,367.567 503.383,463.502 "/>
<rect x="383.997" y="391.566" style="fill:#C7B299;" width="95.999" height="71.998"/>
<polygon style="fill:#998675;" points="415.994,463.563 383.995,463.563 383.995,391.566 455.992,391.566 "/>
<polygon style="fill:#C69C6D;" points="511.991,502.607 0.009,503.562 56.007,463.563 511.991,463.563 "/>
<polygon style="fill:#A67C52;" points="160.004,503.562 0.009,503.562 0.009,463.563 232.001,463.563 "/>
<rect x="0.266" y="495.864" width="511.468" height="15.657"/>
<path style="fill:#0C6D95;" d="M159.093,104.578c5.495-21.396-7.393-43.165-28.789-48.659l-15.496-3.979l-15.932,61.983
	l54.242,13.929L159.093,104.578z"/>
<path style="fill:#29ABE2;" d="M122.123,119.893L128.1,96.62c4.077-15.877-0.181-31.462-14.143-41.416l0.839-3.266l15.508,3.982
	c21.396,5.495,34.284,27.263,28.789,48.659l-5.977,23.273L122.123,119.893z"/>
<path style="fill:#FFFFFF;" d="M84.935,168.203l-13.108-77.69l15.014,3.851c38.633,9.909,68.995,39.759,79.559,78.217l0,0
	l271.208,69.564c21.398,5.488,34.294,27.284,28.806,48.682l0,0c-5.488,21.398-27.284,34.295-48.682,28.806l-92.986-23.851
	l-90.018,125.566l-38.744-9.938l35.776-139.479L107.778,240.13l-3.773-17.484"/>
<g>
	<path style="fill:#29ABE2;" d="M425.456,321.675l-317.682-81.578l0.211-32.983l356.423,91.527l0,0
		C460.012,315.758,442.572,326.07,425.456,321.675z"/>
	<polygon style="fill:#29ABE2;" points="248.392,400.094 201.901,388.156 209.86,357.163 271.847,373.081 	"/>
	<polygon style="fill:#29ABE2;" points="331.959,74.665 285.469,62.727 277.51,93.72 339.497,109.638 	"/>
</g>
<path style="fill:#0C6D95;" d="M135.202,197.614c-5.495,21.396-27.276,34.262-48.672,28.767l-15.496-3.979l15.904-61.99
	l54.242,13.929L135.202,197.614z"/>
<path style="fill:#29ABE2;" d="M110.185,166.382l-5.977,23.273c-4.077,15.877-15.316,27.481-32.348,29.478l-0.839,3.266
	l15.508,3.982c21.396,5.495,43.177-7.371,48.672-28.768l5.977-23.273L110.185,166.382z"/>
<rect x="320.932" y="239.503" transform="matrix(-0.9686 -0.2487 0.2487 -0.9686 586.0194 568.6974)" width="16" height="15.657"/>
<rect x="289.935" y="231.538" transform="matrix(-0.9686 -0.2487 0.2487 -0.9686 526.9805 545.3087)" width="16" height="15.657"/>
<rect x="258.942" y="223.585" transform="matrix(-0.9686 -0.2487 0.2487 -0.9686 467.9452 521.9437)" width="16" height="15.657"/>
<rect x="227.951" y="215.624" transform="matrix(-0.9686 -0.2487 0.2487 -0.9686 408.9167 498.5656)" width="16" height="15.657"/>
<rect x="196.957" y="207.666" transform="matrix(-0.9686 -0.2487 0.2487 -0.9686 349.8827 475.1903)" width="16" height="15.657"/>
<rect x="165.965" y="199.707" transform="matrix(-0.9686 -0.2487 0.2487 -0.9686 290.8517 451.8161)" width="16" height="15.657"/>
<rect x="382.921" y="255.419" transform="matrix(-0.9686 -0.2487 0.2487 -0.9686 704.0908 615.4457)" width="16" height="15.657"/>
<rect x="351.93" y="247.461" transform="matrix(-0.9686 -0.2487 0.2487 -0.9686 645.0619 592.0717)" width="16" height="15.657"/>
<path d="M162.688,122.05l-15.165-3.893l3.972-15.469c2.137-8.322,0.9-16.985-3.482-24.394c-4.383-7.409-11.381-12.667-19.704-14.804
	l-7.91-2.031l-5.998,23.417l-15.169-3.884l9.886-38.595l23.084,5.928c12.374,3.177,22.774,10.989,29.286,21.997
	c6.512,11.009,8.349,23.887,5.172,36.26L162.688,122.05z"/>
<g>
	
		<rect x="174.858" y="342.682" transform="matrix(-0.9687 -0.2484 0.2484 -0.9687 268.5583 767.2483)" style="fill:#8CC63F;" width="15.656" height="47.996"/>
	
		<rect x="250.371" y="48.23" transform="matrix(-0.9687 -0.2484 0.2484 -0.9687 490.3615 206.3319)" style="fill:#8CC63F;" width="15.656" height="47.995"/>
</g>
<path d="M439.553,234.563l-80.103-20.546L337.211,43.138l-51.461-13.2l-37.721,147.063l15.166,3.89l19.918-77.654l47.724,12.241
	l12.279,94.349l-170.469-43.725c-12.343-38.943-44.099-69.121-83.861-79.32l-26.683-6.844l14.836,87.938l-15.435,60.163
	l23.077,5.926c3.972,1.02,7.995,1.524,11.989,1.524c0.729,0,1.454-0.04,2.181-0.073l2.396,11.098L222.23,277.57l-35.773,139.48
	l51.515,13.214l90.018-125.566l87.799,22.52c25.539,6.551,51.658-8.898,58.21-34.445
	C480.55,267.228,465.098,241.115,439.553,234.563z M323.052,55.671l1.16,8.909l-29.259-7.505l2.073-8.08L323.052,55.671z
	 M287.002,88.071l4.06-15.83l35.326,9.061l2.271,17.454L287.002,88.071z M88.477,218.799l-7.915-2.033l12.013-46.823l39.075,10.034
	l-4.029,15.691c-2.137,8.321-7.383,15.309-14.773,19.675C105.455,219.709,96.802,220.936,88.477,218.799z M215.536,366.699
	l41.17,10.56l-10.216,14.25l-35.014-8.981L215.536,366.699z M205.513,405.775l2.073-8.081l29.116,7.468l-5.215,7.274
	L205.513,405.775z M419.678,312.051l-98.174-25.181l-55.011,76.736l-47.068-12.073l21.864-85.238l-126.878-32.544l-0.354-1.639
	c2.311-0.919,4.574-2.001,6.756-3.29c10.992-6.496,18.795-16.888,21.972-29.261l7.924-30.856l-60.365-15.502l-8.792-52.114
	l3.345,0.858c35.822,9.188,64.159,37.048,73.956,72.708l1.204,4.381l275.608,70.692c11.611,2.979,20.113,11.967,23.052,22.784
	l-34.861-8.941l-3.89,15.166l38.906,9.98c-0.014,0.055-0.024,0.112-0.039,0.167C454.425,306.066,436.858,316.456,419.678,312.051z"
	/>
<rect x="246.231" y="276.028" transform="matrix(-0.9686 -0.2485 0.2485 -0.9686 477.1883 627.9504)" width="63.994" height="15.657"/>
<g>
	
		<rect x="350.985" y="90.278" transform="matrix(-0.9686 -0.2487 0.2487 -0.9686 682.2921 282.4081)" style="fill:#8CC63F;" width="15.999" height="15.657"/>
	
		<rect x="275.373" y="384.738" transform="matrix(-0.9686 -0.2487 0.2487 -0.9686 460.2124 843.2738)" style="fill:#8CC63F;" width="16" height="15.657"/>
</g>
<g>
	
		<rect x="8.8" y="137.717" transform="matrix(-0.9686 -0.2485 0.2485 -0.9686 20.5241 293.6823)" style="fill:#9EC4D5;" width="39.998" height="15.657"/>
	
		<rect x="32.117" y="174.623" transform="matrix(-0.9686 -0.2487 0.2487 -0.9686 41.4719 370.1422)" style="fill:#9EC4D5;" width="24" height="15.657"/>
	
		<rect x="42.402" y="101.91" transform="matrix(-0.9686 -0.2487 0.2487 -0.9686 71.9282 228.5634)" style="fill:#9EC4D5;" width="16" height="15.657"/>
	
		<rect x="8.595" y="272.824" transform="matrix(-0.9686 -0.2485 0.2485 -0.9686 73.1566 570.5391)" style="fill:#9EC4D5;" width="127.988" height="15.657"/>
	
		<rect x="100.553" y="328.458" transform="matrix(-0.9687 -0.2484 0.2484 -0.9687 169.5331 693.965)" style="fill:#9EC4D5;" width="55.994" height="15.656"/>
	
		<rect x="67.618" y="359.25" transform="matrix(-0.9687 -0.2484 0.2484 -0.9687 81.2992 744.4152)" style="fill:#9EC4D5;" width="39.997" height="15.656"/>
	
		<rect x="29.164" y="315.346" transform="matrix(-0.9686 -0.2485 0.2485 -0.9686 8.5975 647.4345)" style="fill:#9EC4D5;" width="31.998" height="15.657"/>
	
		<rect x="161.56" y="281.177" transform="matrix(-0.9686 -0.2487 0.2487 -0.9686 261.9182 611.0993)" style="fill:#9EC4D5;" width="16" height="15.657"/>
	
		<rect x="129.598" y="406.145" transform="matrix(-0.9686 -0.2487 0.2487 -0.9686 175.7939 850.1568)" style="fill:#9EC4D5;" width="24" height="15.657"/>
	
		<rect x="115.679" y="13.355" transform="matrix(-0.9686 -0.2485 0.2485 -0.9686 301.2058 80.3889)" style="fill:#9EC4D5;" width="79.995" height="15.657"/>
	
		<rect x="185.554" y="124.231" transform="matrix(-0.9686 -0.2485 0.2485 -0.9686 363.9663 310.0632)" style="fill:#9EC4D5;" width="31.998" height="15.657"/>
	
		<rect x="233.057" y="3.217" transform="matrix(-0.9686 -0.2487 0.2487 -0.9686 479.6668 82.6888)" style="fill:#9EC4D5;" width="23.999" height="15.657"/>
	
		<rect x="178.215" y="56.259" transform="matrix(-0.9687 -0.2484 0.2484 -0.9687 366.4203 174.4115)" style="fill:#9EC4D5;" width="31.997" height="15.656"/>
	
		<rect x="209.183" y="96.21" transform="matrix(-0.9686 -0.2487 0.2487 -0.9686 409.5432 259.8166)" style="fill:#9EC4D5;" width="24" height="15.657"/>
</g>
<path d="M511.734,361.923l-79.852-26.608l-79.852,26.608v94.001L0,456.343L0.019,472L512,471.392L511.734,361.923z M367.688,373.21
	l64.194-21.391l64.194,21.391v82.544l-8.35,0.01v-71.592H376.038v71.724l-8.35,0.01V373.21z M472.069,455.782l-80.373,0.095v-56.049
	h80.373V455.782z"/>
<rect x="424.048" y="360.169" style="fill:#FFFFFF;" width="15.657" height="15.657"/>
</svg>