<?xml version="1.0" encoding="iso-8859-1"?>
<!-- Uploaded to: SVG Repo, www.svgrepo.com, Generator: SVG Repo Mixer Tools -->
<svg height="800px" width="800px" version="1.1" id="Layer_1" xmlns="http://www.w3.org/2000/svg" xmlns:xlink="http://www.w3.org/1999/xlink" 
	 viewBox="0 0 512 512" xml:space="preserve">
<path style="fill:#5F98D1;" d="M463.007,0c-23.245,20.846-60.544,34.365-102.608,34.365c-42.057,0-79.327-13.526-102.572-34.365
	h-3.653c-23.243,20.84-60.515,34.365-102.572,34.365C109.538,34.365,72.238,20.846,48.993,0H17.533v78.946
	c62.205,63.235,71.059,153.986,22.126,225.56c-10.979,16.059-17.409,34.979-17.409,55.682c0,60.221,55.918,109.04,124.897,109.04
	c38.35,0,75.085,13.292,102.202,36.965l6.651,5.806l6.647-5.802c27.108-23.666,63.87-36.968,102.206-36.968l0,0
	c68.978,0,124.897-48.819,124.897-109.04c0-20.694-6.43-39.615-17.41-55.68c-48.877-71.501-40.013-162.394,22.126-225.561
	l0.003-0.003V0H463.007z"/>
<path style="fill:#DE3205;" d="M442.519,182.264c5.071-37.319,22.538-73.423,51.946-103.316l0.003-0.001V0h-31.461
	c-23.245,20.845-60.544,34.365-102.608,34.365c-42.057,0-79.327-13.526-102.572-34.365h-3.653
	c-23.243,20.84-60.515,34.365-102.572,34.365C109.538,34.365,72.238,20.846,48.993,0H17.533v78.946
	c29.438,29.927,46.92,66.016,51.991,103.318H442.519z"/>
<path style="fill:#3B6EAF;" d="M360.398,34.365C318.342,34.365,281.07,20.84,257.826,0h-1.827v512l6.647-5.802
	c27.106-23.666,63.87-36.969,102.206-36.968c68.978,0,124.897-48.819,124.897-109.04c0-20.694-6.43-39.615-17.41-55.68
	c-48.877-71.501-40.013-162.394,22.126-225.561l0.003-0.003V0h-31.461C439.762,20.846,402.462,34.365,360.398,34.365z"/>
<path style="fill:#9D2217;" d="M360.398,34.365C318.341,34.365,281.07,20.84,257.826,0h-1.827v182.264h186.519
	c5.071-37.319,22.538-73.423,51.946-103.316l0.003-0.003V0h-31.461C439.762,20.845,402.462,34.365,360.398,34.365z"/>
<g>
	<path style="fill:#FFFFFF;" d="M247.574,344.968v2.219c0,42.395-26.374,58.171-60.389,58.171s-60.636-15.775-60.636-58.171v-65.319
		c0-42.395,27.36-58.171,62.855-58.171c41.656,0,58.171,25.882,58.171,46.34c0,11.83-5.668,15.529-17.993,15.529
		c-10.599,0-19.966-2.711-19.966-14.05c0-9.367-9.859-14.296-21.444-14.296c-14.543,0-23.171,7.641-23.171,24.648v22.184
		c7.888-8.627,18.98-10.845,30.811-10.845C223.911,293.205,247.574,305.531,247.574,344.968z M165.001,349.898
		c0,17.007,8.381,24.403,22.184,24.403c13.803,0,21.937-7.396,21.937-24.403v-2.217c0-17.993-8.134-24.897-22.184-24.897
		c-13.31,0-21.937,6.408-21.937,22.677L165.001,349.898L165.001,349.898z"/>
	<path style="fill:#FFFFFF;" d="M386.098,344.968v2.219c0,42.395-26.374,58.171-60.389,58.171s-60.636-15.775-60.636-58.171v-65.319
		c0-42.395,27.36-58.171,62.855-58.171c41.656,0,58.171,25.882,58.171,46.34c0,11.83-5.668,15.529-17.993,15.529
		c-10.599,0-19.966-2.711-19.966-14.05c0-9.367-9.859-14.296-21.444-14.296c-14.543,0-23.171,7.641-23.171,24.648v22.184
		c7.888-8.627,18.98-10.845,30.811-10.845C362.435,293.205,386.098,305.531,386.098,344.968z M303.525,349.898
		c0,17.007,8.381,24.403,22.184,24.403c13.803,0,21.937-7.396,21.937-24.403v-2.217c0-17.993-8.134-24.897-22.184-24.897
		c-13.31,0-21.937,6.408-21.937,22.677L303.525,349.898L303.525,349.898z"/>
	<path style="fill:#FFFFFF;" d="M111.016,81.045c0-2.597,1.974-4.884,4.988-4.884h21.509c14.236,0,25.563,5.3,25.563,22.238
		c0,11.638-5.3,18.288-12.573,21.094l12.677,22.965c0.416,0.624,0.519,1.352,0.519,1.872c0,4.052-5.403,8.416-10.183,8.416
		c-2.078,0-4.053-0.831-5.195-3.012l-14.238-27.642h-6.857v25.042c0,3.326-4.053,4.988-8.106,4.988
		c-4.052,0-8.105-1.662-8.105-4.988V81.045z M127.227,90.293v19.328h10.287c5.82,0,9.353-2.391,9.353-9.664
		s-3.533-9.664-9.353-9.664C137.514,90.293,127.227,90.293,127.227,90.293z"/>
	<path style="fill:#FFFFFF;" d="M170.869,128.223v-27.538c0-17.874,11.118-24.524,25.459-24.524s25.563,6.651,25.563,24.524v27.538
		c0,17.872-11.222,24.523-25.563,24.523S170.869,146.095,170.869,128.223z M205.681,100.685c0-7.17-3.534-10.392-9.353-10.392
		c-5.819,0-9.248,3.221-9.248,10.392v27.538c0,7.17,3.429,10.391,9.248,10.391c5.82,0,9.353-3.22,9.353-10.391V100.685z"/>
	<path style="fill:#FFFFFF;" d="M268.13,81.045c0-3.429,3.948-4.884,8.106-4.884c3.949,0,8.105,1.456,8.105,4.884v47.177
		c0,17.872-11.534,24.523-26.186,24.523c-14.756,0-26.186-6.651-26.186-24.523V81.045c0-3.429,3.949-4.884,8.106-4.884
		c3.949,0,8.105,1.456,8.105,4.884v47.177c0,7.065,3.741,10.391,9.975,10.391c6.235,0,9.975-3.325,9.975-10.391V81.045z"/>
	<path style="fill:#FFFFFF;" d="M340.244,76.161c3.429,0,4.884,3.742,4.884,7.17c0,3.949-1.767,7.378-4.884,7.378h-14.34v56.425
		c0,3.326-4.053,4.988-8.106,4.988s-8.105-1.662-8.105-4.988V90.71h-14.34c-3.118,0-4.885-3.429-4.885-7.378
		c0-3.429,1.456-7.17,4.885-7.17h44.891V76.161z"/>
	<path style="fill:#FFFFFF;" d="M367.779,107.855h15.587c3.117,0,4.884,3.013,4.884,6.339c0,2.805-1.456,6.131-4.884,6.131h-15.587
		v17.666h27.849c3.118,0,4.885,3.325,4.885,7.17c0,3.325-1.456,6.962-4.885,6.962h-36.994c-3.534,0-7.066-1.662-7.066-4.988V81.149
		c0-3.325,3.533-4.988,7.066-4.988h36.994c3.429,0,4.885,3.637,4.885,6.962c0,3.845-1.767,7.17-4.885,7.17h-27.849V107.855z"/>
</g>
</svg>